<svg width="749" height="687" viewBox="0 0 749 687" fill="none" xmlns="http://www.w3.org/2000/svg">
<path d="M332.389 324.491L328.13 327.33L332.007 323.89C327.584 316.956 325.291 305.928 325.291 291.132V216.552C325.315 212.574 324.931 208.604 324.145 204.704V204.049C322.799 197.764 319.759 191.968 315.354 187.287C308.68 180.941 299.884 177.302 290.676 177.078H274.625L166.631 428.226L59.5111 177.078H0.600571L0 510.122H60.6577L60.9853 332.516L134.2 513.398H198.789L272.605 332.516L272.277 510.122H291.113C300.137 509.795 308.726 506.161 315.245 499.912C322.334 491.871 325.946 481.348 325.291 470.648V395.849C324.545 384.537 326.825 373.23 331.897 363.091L332.389 362.436C337.396 355.436 344.699 350.413 353.027 348.241L368.696 343.327L353.027 338.468C344.752 336.306 337.467 331.372 332.389 324.491Z" fill="#D3431C"/>
<path d="M747.984 275.353C747.984 249.289 737.63 224.292 719.2 205.862C700.77 187.432 675.773 177.078 649.709 177.078H383.82L385.239 183.356C387.091 191.653 387.989 200.134 387.914 208.635V306.583C387.48 313.838 389.911 320.975 394.684 326.456C397.167 328.891 400.127 330.784 403.379 332.015C406.631 333.246 410.103 333.789 413.575 333.608H423.894V349.223H413.575C410.094 349.047 406.614 349.602 403.36 350.853C400.107 352.103 397.151 354.022 394.684 356.485C389.9 361.96 387.468 369.101 387.914 376.358V478.51C387.989 487.01 387.091 495.492 385.239 503.788L383.82 510.122H648.999C668.299 510.163 687.184 504.521 703.298 493.899C719.412 483.276 732.041 468.145 739.611 450.391C747.18 432.637 749.355 413.048 745.863 394.066C742.371 375.085 733.368 357.552 719.976 343.654C737.917 325.447 747.977 300.914 747.984 275.353ZM686.944 411.846C686.83 421.85 682.798 431.41 675.714 438.474C668.629 445.538 659.058 449.543 649.054 449.628H434.486V374.12H649.054C654.022 374.098 658.945 375.058 663.541 376.944C668.137 378.831 672.316 381.606 675.836 385.112C679.357 388.617 682.151 392.783 684.057 397.371C685.963 401.959 686.944 406.878 686.944 411.846ZM434.868 237.735H649.709C659.473 238.107 668.714 242.247 675.491 249.287C682.268 256.326 686.054 265.718 686.054 275.49C686.054 285.261 682.268 294.653 675.491 301.692C668.714 308.732 659.473 312.872 649.709 313.244H434.759L434.868 237.735Z" fill="#D3431C"/>
</svg>
